<svg width="778" height="240" viewBox="0 0 778 240" fill="none" xmlns="http://www.w3.org/2000/svg">
<g opacity="0.2">
<path d="M0 120C0 120 7.90488 117.843 12.1438 114.94C23.8725 106.908 25.2998 81 25.2998 81V159C25.2998 159 23.8725 133.092 12.1438 125.06C7.90488 122.157 0 120 0 120Z" fill="#D9D9D9"/>
<path d="M50.5996 120C50.5996 120 42.6947 122.157 38.4558 125.06C26.7271 133.092 25.2998 159 25.2998 159V81.0001C25.2998 81.0001 26.7272 106.908 38.4558 114.94C42.6947 117.843 50.5996 120 50.5996 120Z" fill="#D9D9D9"/>
<path d="M109.205 43.2H125.525V179.28H172.085V192H109.205V43.2Z" fill="white"/>
<path d="M234.455 43.2H250.775V192H234.455V43.2Z" fill="white"/>
<path d="M355.374 192.96C343.854 192.96 335.134 190.88 329.214 186.72C323.454 182.4 320.574 176.4 320.574 168.72V65.04C320.574 58.16 323.294 52.48 328.734 48C334.174 43.36 343.054 41.12 355.374 41.28C368.014 41.44 377.054 43.76 382.494 48.24C387.934 52.56 390.654 58.16 390.654 65.04V168.72C390.654 176.24 387.774 182.16 382.014 186.48C376.254 190.8 367.374 192.96 355.374 192.96ZM355.374 179.76C362.254 179.76 367.214 178.4 370.254 175.68C373.294 172.8 374.814 169.12 374.814 164.64V69.12C374.814 65.12 373.454 61.68 370.734 58.8C368.014 55.92 362.814 54.48 355.134 54.48C347.934 54.48 342.974 55.92 340.254 58.8C337.694 61.52 336.414 64.88 336.414 68.88V164.88C336.414 169.2 337.934 172.8 340.974 175.68C344.014 178.4 348.814 179.76 355.374 179.76Z" fill="white"/>
<path d="M460.47 43.2H508.23C515.11 43.2 520.15 44.08 523.35 45.84C526.71 47.44 528.87 50 529.83 53.52C530.95 56.88 531.51 61.12 531.51 66.24V94.32C531.51 100.08 531.03 105.52 530.07 110.64C529.11 115.6 526.63 119.68 522.63 122.88C518.63 125.92 512.07 127.44 502.95 127.44H476.79V192H460.47V43.2ZM522.63 195.6L495.27 126.48L506.31 125.52L510.87 126.96L511.83 128.4L537.75 189.84L522.63 195.6ZM498.39 114.72C503.99 114.72 508.23 113.28 511.11 110.4C513.99 107.36 515.43 102.4 515.43 95.52V72.96C515.43 66.4 514.39 61.92 512.31 59.52C510.39 57.12 506.55 55.92 500.79 55.92H476.79V114.72H498.39Z" fill="white"/>
<path d="M592.736 192L623.936 43.2H645.296L676.256 192H659.456L652.256 156.96L655.376 159.84H613.136L615.776 156.96L609.056 192H592.736ZM616.256 148.8L614.576 146.88H654.176L652.016 148.8L636.656 64.32L636.176 61.92H632.816L632.336 64.32L616.256 148.8Z" fill="white"/>
<path d="M726.6 120C726.6 120 734.504 117.843 738.743 114.94C750.472 106.908 751.899 81 751.899 81V159C751.899 159 750.472 133.092 738.743 125.06C734.504 122.157 726.6 120 726.6 120Z" fill="#D9D9D9"/>
<path d="M777.199 120C777.199 120 769.294 122.157 765.055 125.06C753.327 133.092 751.899 159 751.899 159V81.0001C751.899 81.0001 753.327 106.908 765.055 114.94C769.294 117.843 777.199 120 777.199 120Z" fill="#D9D9D9"/>
</g>
</svg>
