<svg width="80" height="36" viewBox="0 0 80 36" fill="none" xmlns="http://www.w3.org/2000/svg">
<path d="M0.570969 0.28H2.75497V33.32H14.179V35H0.570969V0.28ZM18.6192 35V8.68H20.7472V35H18.6192ZM19.6272 4.76C19.0298 4.76 18.6565 4.68533 18.5072 4.536C18.3578 4.38666 18.2832 4.06933 18.2832 3.584C18.2832 3.09867 18.3578 2.78133 18.5072 2.632C18.6565 2.44533 19.0298 2.352 19.6272 2.352C20.1872 2.352 20.5418 2.44533 20.6912 2.632C20.8778 2.78133 20.9712 3.09867 20.9712 3.584C20.9712 4.06933 20.8778 4.38666 20.6912 4.536C20.5418 4.68533 20.1872 4.76 19.6272 4.76ZM34.5813 35.224C32.5653 35.224 31.0347 34.9253 29.9893 34.328C28.944 33.7307 28.2347 32.984 27.8613 32.088C27.488 31.1547 27.3013 30.24 27.3013 29.344V14.28C27.3013 13.3467 27.488 12.432 27.8613 11.536C28.2347 10.64 28.9627 9.89333 30.0453 9.296C31.1653 8.69867 32.808 8.4 34.9733 8.4C37.1013 8.4 38.7067 8.69867 39.7893 9.296C40.872 9.89333 41.6187 10.64 42.0293 11.536C42.44 12.432 42.6453 13.3467 42.6453 14.28V28.56C42.6453 29.7173 42.4213 30.8187 41.9733 31.864C41.5627 32.872 40.7787 33.6933 39.6213 34.328C38.464 34.9253 36.784 35.224 34.5813 35.224ZM34.5813 33.488C36.448 33.488 37.904 33.096 38.9493 32.312C39.9947 31.528 40.5173 30.2587 40.5173 28.504V14.616C40.5173 13.0853 40.0133 11.9467 39.0053 11.2C37.9973 10.4533 36.6533 10.08 34.9733 10.08C33.3307 10.08 31.9867 10.4533 30.9413 11.2C29.9333 11.9093 29.4293 13.048 29.4293 14.616V28.952C29.4293 30.52 29.9333 31.6773 30.9413 32.424C31.9493 33.1333 33.1627 33.488 34.5813 33.488ZM49.2988 35V8.68H50.9788L51.2028 11.424C51.8375 10.4533 52.6402 9.70667 53.6108 9.184C54.5815 8.66133 55.6455 8.4 56.8028 8.4C57.6615 8.4 58.3148 8.456 58.7628 8.568C59.2482 8.64266 59.7148 8.77333 60.1628 8.96L60.0508 10.92C59.5655 10.6587 59.0615 10.4907 58.5388 10.416C58.0535 10.304 57.4375 10.248 56.6908 10.248C55.4215 10.248 54.3575 10.5653 53.4988 11.2C52.6402 11.8347 51.9495 12.6373 51.4268 13.608V35H49.2988ZM68.0339 35C66.7272 35 65.7939 34.832 65.2339 34.496C64.6739 34.1227 64.3192 33.432 64.1699 32.424C64.0579 31.3787 64.0019 29.8853 64.0019 27.944V13.664C64.0019 12.208 64.1512 11.1253 64.4499 10.416C64.7486 9.70667 65.3086 9.24 66.1299 9.016C66.9886 8.792 68.2579 8.68 69.9379 8.68H79.3459V35H77.2179V10.416H69.3779C68.2579 10.416 67.4739 10.5653 67.0259 10.864C66.5779 11.1627 66.3166 11.648 66.2419 12.32C66.1672 12.9547 66.1299 13.8693 66.1299 15.064V28.84C66.1299 30.0347 66.1859 30.9493 66.2979 31.584C66.4099 32.2187 66.6712 32.6667 67.0819 32.928C67.4926 33.152 68.1086 33.264 68.9299 33.264H75.3139L75.0339 35H68.0339Z" fill="#191919"/>
</svg>
