<svg width="16" height="17" viewBox="0 0 16 17" fill="none" xmlns="http://www.w3.org/2000/svg">
<path fill-rule="evenodd" clip-rule="evenodd" d="M12.5358 7.52532C12.5358 10.2373 10.2418 12.5506 7.26788 12.5506C4.29398 12.5506 2 10.2373 2 7.52532C2 4.81336 4.29398 2.5 7.26788 2.5C10.2418 2.5 12.5358 4.81336 12.5358 7.52532ZM11.4753 13.2544C10.2879 14.0707 8.83587 14.5506 7.26788 14.5506C3.25394 14.5506 0 11.4053 0 7.52532C0 3.64534 3.25394 0.5 7.26788 0.5C11.2818 0.5 14.5358 3.64534 14.5358 7.52532C14.5358 9.229 13.9084 10.791 12.8648 12.0073L15.7275 14.8971C16.09 15.263 16.0909 15.8571 15.7297 16.2241C15.3684 16.5911 14.7817 16.5921 14.4193 16.2262L11.4753 13.2544Z" fill="#3F3F3F"/>
</svg>
