<svg width="26" height="27" viewBox="0 0 26 27" fill="none" xmlns="http://www.w3.org/2000/svg">
<path fill-rule="evenodd" clip-rule="evenodd" d="M10.9927 23.7539C10.9927 24.7526 10.1847 25.5623 9.18828 25.5623C8.1908 25.5623 7.38281 24.7526 7.38281 23.7539C7.38281 22.7553 8.1908 21.9456 9.18828 21.9456C10.1847 21.9456 10.9927 22.7553 10.9927 23.7539Z" stroke="#565656" stroke-width="2" stroke-linecap="round" stroke-linejoin="round"/>
<path fill-rule="evenodd" clip-rule="evenodd" d="M22.0269 23.7539C22.0269 24.7526 21.2189 25.5623 20.2225 25.5623C19.225 25.5623 18.417 24.7526 18.417 23.7539C18.417 22.7553 19.225 21.9456 20.2225 21.9456C21.2189 21.9456 22.0269 22.7553 22.0269 23.7539Z" stroke="#565656" stroke-width="2" stroke-linecap="round" stroke-linejoin="round"/>
<path d="M22.748 19.4127H8.46562C7.46814 19.4127 6.66016 18.603 6.66016 17.6043C6.66016 16.6047 7.46814 15.7949 8.46562 15.7949" stroke="#565656" stroke-width="2" stroke-linecap="round" stroke-linejoin="round"/>
<path d="M1 1.56226H4.60989L7.62837 15.7955H22.7489L25 5.18006H5.51263" stroke="#565656" stroke-width="2" stroke-linecap="round" stroke-linejoin="round"/>
</svg>
