<svg width="24" height="25" viewBox="0 0 24 25" fill="none" xmlns="http://www.w3.org/2000/svg">
<path d="M17.5 6.80455C17.5 8.15457 16.9225 9.74244 15.9528 10.9911C14.9794 12.2445 13.741 13 12.5 13C11.259 13 10.0206 12.2445 9.04717 10.9911C8.07749 9.74244 7.5 8.15457 7.5 6.80455C7.5 4.18203 9.7071 2 12.5 2C15.2929 2 17.5 4.18203 17.5 6.80455Z" stroke="#565656" stroke-width="2"/>
<path d="M4.63508 18.2522C2.04085 20.8296 2.38662 20.2321 2.74933 21.7009C3.0552 22.9395 5.26367 24 5.26367 24H20.3499C20.3499 24 22.0162 22.8051 22.2357 21.7009C22.5303 20.2194 23.1242 20.8296 20.3499 18.2522C18.8453 16.8544 18.3103 15.631 15.3339 15.1823C14.5517 15.0644 13.7107 15 12.8068 15C11.9029 15 11.0664 15.0644 10.2925 15.1823C7.34736 15.631 6.04204 16.8544 4.63508 18.2522Z" stroke="#565656" stroke-width="2" stroke-linecap="round" stroke-linejoin="round"/>
</svg>
